<?xml version="1.0" encoding="UTF-8" standalone="no"?>
<svg width="500px" height="500px" viewBox="0 0 500 500" version="1.1" xmlns="http://www.w3.org/2000/svg" xmlns:xlink="http://www.w3.org/1999/xlink" xmlns:sketch="http://www.bohemiancoding.com/sketch/ns">
    <!-- Generator: Sketch 3.2 (9961) - http://www.bohemiancoding.com/sketch -->
    <title>hyper pictogram logo</title>
    <desc>Created with Sketch.</desc>
    <defs></defs>
    <g id="Page-1" stroke="none" stroke-width="1" fill="none" fill-rule="evenodd" sketch:type="MSPage">
        <g id="hyper-pictogram-logo" sketch:type="MSArtboardGroup">
            <rect id="background" stroke="#303BA3" fill="#FFFFFF" sketch:type="MSShapeGroup" x="-1" y="-1" width="502" height="502"></rect>
            <g id="symbol" sketch:type="MSLayerGroup" transform="translate(63.000000, 33.000000)">
                <g id="luggage" transform="translate(226.000000, 142.000000)" sketch:type="MSShapeGroup" fill="#000000">
                    <circle id="Oval-1-copy" transform="translate(96.500000, 164.500000) rotate(-28.000000) translate(-96.500000, -164.500000) " cx="96.5" cy="164.5" r="4.5"></circle>
                    <circle id="Oval-1-copy-2" transform="translate(125.500000, 149.500000) rotate(-28.000000) translate(-125.500000, -149.500000) " cx="125.5" cy="149.5" r="4.5"></circle>
                    <path d="M56,45 C56,45 53.0604652,153.487397 58.6066836,156.659947 C64.1529021,159.832497 103.680905,159.251519 107.505552,156.659947 C111.3302,154.068375 110.879423,56.4300565 108.865782,48.4878941 C106.995107,41.1096158 56,45 56,45 Z" id="Rectangle-1" transform="translate(82.500000, 101.500000) rotate(-28.000000) translate(-82.500000, -101.500000) "></path>
                    <rect id="Rectangle-1-copy" transform="translate(26.500000, 46.000000) rotate(-28.000000) translate(-26.500000, -46.000000) " x="23" y="-4" width="7" height="100"></rect>
                </g>
                <g id="person" transform="translate(81.000000, 0.000000)" fill="#000000" sketch:type="MSShapeGroup">
                    <path d="M107.5,39 C116.612699,39 124,30.2695532 124,19.5 C124,8.73044685 116.612699,0 107.5,0 C98.3873012,0 91,8.73044685 91,19.5 C91,30.2695532 98.3873012,39 107.5,39 Z" id="Oval-1"></path>
                    <path d="M133.867903,152.560607 C127.268118,131.445289 160.828477,56.8119964 139.753281,40.32312 C118.678085,23.8342326 127.93566,112.096515 120.919941,152.560606 C113.904223,193.024697 140.467688,173.675926 133.867903,152.560607 Z" id="Oval-1-copy-2" transform="translate(133.236860, 107.482051) rotate(-30.000000) translate(-133.236860, -107.482051) "></path>
                    <path d="M102.276212,112.633353 C105.754409,111.300123 102.276213,98.6269817 102.276212,89.4727624 C102.276212,82.1059679 113.519808,59.514444 102.276212,49.3034772 C92.6556679,40.5664986 64.5206501,38.0139505 47.600581,38.0139505 C27.1467989,38.0139474 9.53441886,35.8246662 27.6538434,54.1572158 C35.0385992,61.6288326 87.5798166,52.1996545 91.8022855,59.9399425 C97.0738678,69.6033811 93.5289272,89.1508653 91.8022847,97.9404461 C89.1358309,111.514192 96.3969894,114.886923 102.276212,112.633353 Z" id="Oval-1-copy-4" transform="translate(63.546234, 75.493226) rotate(117.000000) translate(-63.546234, -75.493226) "></path>
                    <rect id="Rectangle-1-copy-2" transform="translate(10.500000, 75.000000) rotate(-28.000000) translate(-10.500000, -75.000000) " x="8" y="58" width="5" height="34"></rect>
                    <path d="M142.722737,304.979249 C144.812392,292.946854 134.804382,253.888623 134.815599,244.380596 C134.826816,234.87257 143.411554,161.841768 130.264559,161.841752 C123.422013,161.841743 119.414238,229.143342 116.438387,237.257561 C113.462535,245.371781 114.214379,288.191602 116.438387,299.04828 C118.984515,311.477413 140.633082,317.011644 142.722737,304.979249 Z" id="Oval-1-copy-5" transform="translate(128.715779, 236.841752) scale(1, -1) rotate(8.000000) translate(-128.715779, -236.841752) "></path>
                    <path d="M89.428191,294.013224 C94.219363,279.674891 85.1453842,245.272974 85.1566011,235.764948 C85.1678181,226.256922 105.250998,153.067867 92.1040021,153.06785 C84.7592882,153.067841 69.0058041,227.000501 66.4039294,233.417055 C63.5184543,240.657244 62.2079871,292.208326 63.6665223,299.781402 C67.9448654,321.995621 84.637019,308.351557 89.428191,294.013224 Z" id="Oval-1-copy-6" transform="translate(79.782850, 232.043319) scale(1, -1) rotate(-28.000000) translate(-79.782850, -232.043319) "></path>
                    <path d="M100.796875,185.525391 C112.363282,191.748047 138.761719,185.115229 132.832031,156.425784 C128.874543,137.27838 119.089843,123.039062 121.378906,108.634766 C123.667969,94.2304693 126.519189,40.902089 108.144531,40.9020792 C97.7719612,40.9020737 98.1523431,51.0800777 90.3164062,62.9238287 C82.4804697,74.767582 89.4170944,102.625435 94.4707029,114.285288 C108.14453,145.833987 89.2304685,179.302732 100.796875,185.525391 Z" id="Oval-1-copy"></path>
                </g>
                <g id="baloon-+-mobile" transform="translate(0.000000, 37.000000)" stroke="#000000" sketch:type="MSShapeGroup">
                    <path d="M29.4034375,73 C51.1141813,73 55.6528926,44.0018263 55.6528926,44.0018263 C55.6528926,44.0018263 74,39.5721679 74,37.5471812 C73.9999999,35.4715698 55.6528926,31.7000321 55.6528926,31.7000321 C55.6528926,31.7000321 52.6431069,-0.000594850055 29.4034375,0 C13.1909125,0.000415738266 0,13.6839756 0,37.5471812 C0,61.4103868 13.1909125,73.0000038 29.4034375,73 Z" id="baloon"></path>
                </g>
            </g>
            <text id="ハイパーピクトグラム" sketch:type="MSTextLayer" font-family="Hiragino Kaku Gothic ProN" font-size="32" font-weight="313" sketch:alignment="middle" fill="#000000">
                <tspan x="97.82" y="457">ハイパーピクトグラム</tspan>
            </text>
            <text id="Hyper-Pictogram" sketch:type="MSTextLayer" font-family="Hiragino Kaku Gothic ProN" font-size="44" font-weight="313" sketch:alignment="middle" fill="#000000">
                <tspan x="69.156" y="409">Hyper Pictogram</tspan>
            </text>
            <g id="mobile-+-i-+-Oval-22-copy" sketch:type="MSLayerGroup" transform="translate(78.000000, 82.000000)">
                <g id="mobile" sketch:type="MSShapeGroup">
                    <rect id="Rectangle-1-copy-3" stroke="#000000" stroke-width="4" fill="#000000" x="0" y="0" width="26" height="46"></rect>
                    <rect id="Rectangle-1-copy-4" fill="#FFFFFF" x="2.21276596" y="2.21686747" width="21.712766" height="36.0240964"></rect>
                    <ellipse id="Oval-1-copy" fill="#FFFFFF" cx="13.1382979" cy="42.1204819" rx="2.62765957" ry="2.63253012"></ellipse>
                </g>
                <g id="i-+-Oval-22" transform="translate(6.638298, 14.409639)">
                    <text id="i" sketch:type="MSTextLayer" font-family="Helvetica" font-size="9.92457329" font-weight="normal" sketch:alignment="middle" fill="#000000">
                        <tspan x="5.6741346" y="10.6927711">i</tspan>
                    </text>
                    <ellipse id="Oval-22" stroke="#000000" stroke-width="2" sketch:type="MSShapeGroup" cx="6.77659574" cy="6.78915663" rx="6.77659574" ry="6.78915663"></ellipse>
                </g>
            </g>
        </g>
    </g>
</svg>